<?xml version="1.0" encoding="utf-8"?>
<!-- Generator: Adobe Illustrator 21.1.0, SVG Export Plug-In . SVG Version: 6.00 Build 0)  -->
<svg version="1.1" id="Layer_1" xmlns="http://www.w3.org/2000/svg" xmlns:xlink="http://www.w3.org/1999/xlink" x="0px" y="0px"
	 viewBox="0 0 1000 1000" style="enable-background:new 0 0 1000 1000;" xml:space="preserve">
<path d="M658,511l-0.1-0.1c48.2-15.7,83-58,83-107.4V192.9c0-62.7-56-114.1-124.5-114.1h-86.2h-35.1H492v0l-23.4,0L35.2,921.2
	l42.5,0l207.7-403.7H492v403.7h38.3V517.6h86.2c0.8,0,1.6-0.1,2.4-0.1l-0.4,0.1l298.3,403.7l46.2,0L658,511z M303.5,482.4L492,113.9
	v368.6H303.5z M530.3,482.4V113.9h86.2c47.5,0,86.2,35.4,86.2,79v210.6c0,43.5-38.7,79-86.2,79H530.3z"/>
</svg>
